<?xml version="1.0" encoding="UTF-8"?>
<svg xmlns="http://www.w3.org/2000/svg" version="1.1" viewBox="0 0 1920 1080" role="img" aria-label="Ordex logo mark">
  <defs>
    <style>
      .st0 { fill: #bbff00; }
      .st1 { fill: #a550ff; }
    </style>
  </defs>
  <path d="M942.4,283.59c78.09-13.31,125.18,74.04,180.04,115.9,9.62,1.7,86.28-86.8,103.18-98.91,49.61-35.53,125.62-16.08,147.61,41.84,33.32,87.76-61.64,138.3-108.96,195.63,41.22,60.47,138.82,104.13,111.17,192.11-13.87,44.11-59.22,70.83-104.23,66.21-58.17-5.97-105.09-86.69-149.39-121.23-8.49,0-92.02,102.98-124.21,114.85-92.95,34.3-170.73-70.48-112.67-148.77,12.76-17.2,97.5-91.82,98.93-99.89-38-59.36-135.95-99.58-116.53-183.81,7.72-33.49,40.65-68.06,75.05-73.93"/>
  <path class="st0" d="M621.61,281.93v198.53l173.07-130.37c221.27,204.94-31.71,561.8-299.48,412.45-229.44-127.98-134.15-481.49,126.41-480.61"/>
  <path class="st1" d="M1554.53,733.37c0,35.08-28.44,63.52-63.52,63.52s-63.52-28.44-63.52-63.52,28.44-63.52,63.52-63.52,63.52,28.44,63.52,63.52"/>
</svg>
